<svg width="270" height="56" viewBox="0 0 270 56" fill="none" xmlns="http://www.w3.org/2000/svg">
<path fill-rule="evenodd" clip-rule="evenodd" d="M65.6813 23.1366C61.8582 23.1366 59.1001 26.0601 58.827 30.1038H72.3445C72.2079 26.0055 69.5864 23.1366 65.6813 23.1366ZM72.3718 38.765H78.7346C77.8607 44.2295 72.7814 48 65.9271 48C57.2431 48 52 42.2896 52 33.0546C52 23.9016 57.2978 17.8634 65.654 17.8634C73.8737 17.8634 79.0076 23.5738 79.0076 32.3716V34.5847H58.7724V34.9945C58.7724 39.6393 61.6124 42.7541 66.0636 42.7541C69.2314 42.7541 71.6345 41.1694 72.3718 38.765ZM94.1909 47.8907C86.8997 47.8907 82.1754 42.1257 82.1754 32.918C82.1754 23.765 86.8997 17.9727 94.1909 17.9727C98.3417 17.9727 101.619 20.1311 103.148 23.3279H103.312V8H110.111V47.4262H103.448V42.4809H103.339C101.755 45.7322 98.4237 47.8907 94.1909 47.8907ZM96.239 23.5738C91.8697 23.5738 89.1389 27.2077 89.1389 32.9454C89.1389 38.7104 91.8424 42.3169 96.239 42.3169C100.526 42.3169 103.339 38.6831 103.339 32.9454C103.339 27.2623 100.526 23.5738 96.239 23.5738ZM141.488 18.4645V47.4262H134.934V42.3989H134.798C133.269 45.9235 130.347 47.9454 125.95 47.9454C119.669 47.9454 115.682 43.8743 115.682 37.1803V18.4645H122.482V35.8142C122.482 39.9672 124.503 42.2077 128.326 42.2077C132.258 42.2077 134.689 39.4208 134.689 35.2131V18.4645H141.488ZM172.538 28.7923H166.12C165.574 25.7049 163.417 23.3825 159.785 23.3825C155.497 23.3825 152.739 26.9891 152.739 32.9454C152.739 39.0109 155.525 42.5082 159.839 42.5082C163.28 42.5082 165.519 40.541 166.148 37.2623H172.565C172.019 43.7377 167.021 48 159.757 48C151.292 48 145.83 42.3443 145.83 32.9454C145.83 23.6831 151.292 17.8634 159.703 17.8634C167.349 17.8634 172.073 22.6995 172.538 28.7923ZM187.175 42.7541C191.025 42.7541 194.111 40.1858 194.111 36.6885V34.4754L187.421 34.8852C184.144 35.1038 182.259 36.5792 182.259 38.8743C182.259 41.2514 184.225 42.7541 187.175 42.7541ZM185.127 47.8907C179.528 47.8907 175.46 44.3661 175.46 39.1475C175.46 34.0109 179.419 30.9235 186.465 30.4863L194.111 30.0492V27.9727C194.111 24.9399 192.063 23.1913 188.704 23.1913C185.482 23.1913 183.434 24.7486 182.997 27.153H176.688C176.989 21.7432 181.604 17.8634 188.977 17.8634C196.159 17.8634 200.829 21.6612 200.829 27.4809V47.4262H194.275V42.8087H194.138C192.473 45.9508 188.841 47.8907 185.127 47.8907ZM208.175 11.6885H214.974V18.4645H220.436V23.7104H214.974V38.765C214.974 41.1421 216.067 42.235 218.47 42.235C219.098 42.235 219.972 42.1803 220.409 42.0984V47.2896C219.671 47.4536 218.333 47.5628 216.886 47.5628C210.632 47.5628 208.175 45.3497 208.175 39.7213V23.7104H204.024V18.4645H208.175V11.6885ZM225.051 47.4262V18.4645H231.578V23.5191H231.714C232.697 19.9945 235.237 17.9727 238.65 17.9727C239.524 17.9727 240.289 18.1366 240.78 18.2459V24.3934C240.207 24.1749 239.169 24.0109 238.022 24.0109C234.172 24.0109 231.851 26.4973 231.851 30.5683V47.4262H225.051ZM255.991 48C247.498 48 241.982 42.3443 241.982 32.9454C241.982 23.6011 247.553 17.8634 255.991 17.8634C264.429 17.8634 270 23.5738 270 32.9454C270 42.3443 264.484 48 255.991 48ZM255.991 42.6175C260.306 42.6175 263.091 39.1202 263.091 32.9454C263.091 26.7978 260.306 23.2732 255.991 23.2732C251.704 23.2732 248.891 26.7978 248.891 32.9454C248.891 39.1202 251.676 42.6175 255.991 42.6175Z" fill="white"/>
<path fill-rule="evenodd" clip-rule="evenodd" d="M9.6142 6.55399C7.18086 6.55399 4.80178 7.38793 2.91543 8.90223C2.53486 9.20785 2.17899 9.53965 1.84836 9.89347C4.81185 4.03354 10.9382 0 17.9998 0C25.0627 0 31.19 4.03508 34.1529 9.89687C33.7454 9.46057 33.299 9.05723 32.8156 8.69377C30.9533 7.29383 28.7299 6.55399 26.3857 6.55399C24.1903 6.55399 22.0822 7.21069 20.2895 8.45311C19.415 9.05921 18.6459 9.78229 18 10.5996C17.3541 9.78218 16.5849 9.05921 15.7104 8.45311C13.9177 7.21069 11.8097 6.55399 9.6142 6.55399ZM9.6142 9.84024C12.453 9.84024 15.0568 11.5028 16.2483 14.0251L14.087 17.7098C12.9926 19.576 12.9098 21.8478 13.8657 23.7869L16.5067 29.1451C16.785 29.7099 17.3645 30.0681 17.9996 30.0681C18.6346 30.0681 19.214 29.7098 19.4924 29.1451L22.1334 23.7869C23.0893 21.8478 23.0065 19.576 21.9121 17.7098L19.7513 14.0254C20.9427 11.5029 23.5465 9.84013 26.3855 9.84013C27.9978 9.84013 29.5262 10.3484 30.8057 11.3102C32.4716 12.5625 33.505 14.5118 33.6412 16.6582L33.6452 16.7231C33.7421 18.2558 33.6304 19.7302 33.3137 21.1054C32.5364 24.4795 30.5996 27.5429 27.8603 29.7315C25.0416 31.9834 21.6323 33.1738 18.001 33.1738C14.3697 33.1738 10.9604 31.9835 8.14164 29.7315C5.40236 27.5429 3.46564 24.4795 2.68822 21.1055C2.37497 19.7457 2.26093 18.2859 2.34906 16.7674L2.35327 16.6967C2.47374 14.6226 3.44161 12.7119 5.0084 11.4541C6.32361 10.3982 7.91631 9.84024 9.6142 9.84024ZM17.9998 24.6761L19.1479 22.3467C19.6178 21.3934 19.5771 20.2767 19.0391 19.3593L17.9998 17.5872L16.9605 19.3593C16.4225 20.2767 16.3816 21.3935 16.8516 22.3467L17.9998 24.6761ZM29.9476 32.2883C27.0572 34.5973 23.5222 36.015 19.8366 36.3707C20.4592 40.2902 22.2032 44.1412 24.7481 47.1431C26.9182 49.7028 30.6096 52.7376 36 52.9316V23.7499C34.8418 27.0764 32.7386 30.0583 29.9476 32.2883ZM23.7919 16.8673C23.8637 16.1837 24.3666 15.6044 25.041 15.4362C25.7128 15.2687 26.4412 15.5467 26.8258 16.117C27.2098 16.6862 27.1926 17.4581 26.7788 18.0074C26.3644 18.5573 25.6271 18.8023 24.9623 18.6014C24.2151 18.3756 23.7126 17.6385 23.7919 16.8673ZM10.3463 18.6227C11.0221 18.4535 11.5221 17.876 11.5953 17.1916C11.6746 16.4207 11.1722 15.6829 10.4249 15.4575C9.76002 15.2571 9.02325 15.5018 8.60891 16.0515C8.19534 16.6002 8.17718 17.3733 8.5614 17.9419C8.94629 18.5114 9.67443 18.791 10.3463 18.6227ZM22.2031 49.255C19.1743 45.6825 17.132 41.0659 16.4839 36.3991C12.6839 36.0962 9.02812 34.6638 6.05477 32.2884C3.26212 30.0572 1.15808 27.0732 0.000212411 23.7446V34.2872C-0.0252548 40.0515 2.24011 45.4909 6.37886 49.6034C10.5302 53.7283 16.0396 56 21.8919 56H33.0584C33.2098 56 33.36 55.9883 33.5081 55.9658C29.2303 55.2198 25.295 52.9021 22.2031 49.255Z" fill="white"/>
</svg>